<?xml version="1.0" encoding="UTF-8"?>
<svg width="73px" height="31px" viewBox="0 0 73 31" version="1.1" xmlns="http://www.w3.org/2000/svg" xmlns:xlink="http://www.w3.org/1999/xlink">
    <!-- Generator: Sketch 53.2 (72643) - https://sketchapp.com -->
    <title>typo</title>
    <desc>Created with Sketch.</desc>
    <defs>
        <polygon id="path-1" points="0 0.0553323559 10.7034901 0.0553323559 10.7034901 17.9474436 0 17.9474436"></polygon>
        <polygon id="path-3" points="0.118096731 0.0357242092 10.6995735 0.0357242092 10.6995735 14.1008661 0.118096731 14.1008661"></polygon>
    </defs>
    <g id="Page-1" stroke="none" stroke-width="1" fill="none" fill-rule="evenodd">
        <g id="typo">
            <g id="Group-4" transform="translate(0.000000, 22.653846)" fill="#FFFFFF">
                <polygon id="Fill-19" points="2.73114864e-14 7.66922852 1.85125248 7.66922852 1.85125248 0.108971867 2.73114864e-14 0.108971867"></polygon>
                <path d="M10.2852295,7.66900888 L7.87017105,7.66900888 L5.38042883,2.34247155 L5.33827776,2.34247155 C5.39768531,3.18023396 5.4271062,3.81969456 5.4271062,4.26116711 L5.4271062,7.66900888 L3.79509587,7.66900888 L3.79509587,0.108752229 L6.20081884,0.108752229 L8.68122559,5.36218145 L8.709232,5.36218145 C8.66538357,4.60066484 8.6438837,3.98881588 8.6438837,3.5266346 L8.6438837,0.108752229 L10.2852295,0.108752229 L10.2852295,7.66900888 Z" id="Fill-20"></path>
                <polygon id="Fill-21" points="15.194415 7.66900888 13.3527809 7.66900888 13.3527809 1.77894298 11.6885207 1.77894298 11.6885207 0.108752229 16.8541488 0.108752229 16.8541488 1.77894298 15.194415 1.77894298"></polygon>
                <polygon id="Fill-22" points="22.2993319 7.66900888 18.2519803 7.66900888 18.2519803 0.108752229 22.2993319 0.108752229 22.2993319 1.74819365 20.0941802 1.74819365 20.0941802 2.93706323 22.1361026 2.93706323 22.1361026 4.57681842 20.0941802 4.57681842 20.0941802 6.00352466 22.2993319 6.00352466"></polygon>
                <polygon id="Fill-23" points="24.0693658 7.66900888 24.0693658 0.108752229 25.9115657 0.108752229 25.9115657 6.0192131 28.5362479 6.0192131 28.5362479 7.66900888"></polygon>
                <polygon id="Fill-24" points="29.9915915 7.66900888 29.9915915 0.108752229 31.8335085 0.108752229 31.8335085 6.0192131 34.4581907 6.0192131 34.4581907 7.66900888"></polygon>
                <polygon id="Fill-25" points="35.9138455 7.66922852 37.765098 7.66922852 37.765098 0.108971867 35.9138455 0.108971867"></polygon>
                <path d="M42.434475,3.24223466 L45.3759975,3.24223466 L45.3759975,7.31714867 C44.5776731,7.62087677 43.6995729,7.77242704 42.7419798,7.77242704 C41.6913148,7.77242704 40.8796945,7.43449816 40.3062702,6.7586404 C39.7325629,6.08341017 39.4457093,5.11919898 39.4457093,3.8682032 C39.4457093,2.64732922 39.7597207,1.69786515 40.3877434,1.01855593 C41.0154832,0.339560479 41.8952807,6.27537385e-05 43.0265703,6.27537385e-05 C43.4554362,6.27537385e-05 43.8602562,0.0452454455 44.2410304,0.134355754 C44.6215216,0.2240936 44.9536381,0.337991636 45.2362483,0.476049861 L44.6537714,2.07878034 C44.1623861,1.80988057 43.6234747,1.67558757 43.0356228,1.67558757 C42.4981259,1.67558757 42.0822731,1.86918286 41.78863,2.25731473 C41.494987,2.6454466 41.3478826,3.19924835 41.3478826,3.91966126 C41.3478826,4.62658213 41.4811252,5.16500921 41.7467618,5.5358838 C42.0123985,5.90644463 42.3954357,6.09156816 42.8958736,6.09156816 C43.1694313,6.09156816 43.4209232,6.06238767 43.6511982,6.00371292 L43.6511982,4.81954988 L42.434475,4.81954988 L42.434475,3.24223466 Z" id="Fill-26"></path>
                <polygon id="Fill-27" points="51.2986475 7.66900888 47.2512959 7.66900888 47.2512959 0.108752229 51.2986475 0.108752229 51.2986475 1.74819365 49.0934958 1.74819365 49.0934958 2.93706323 51.1354182 2.93706323 51.1354182 4.57681842 49.0934958 4.57681842 49.0934958 6.00352466 51.2986475 6.00352466"></polygon>
                <path d="M59.5588999,7.66900888 L57.1438415,7.66900888 L54.6543821,2.34247155 L54.6122311,2.34247155 C54.6713557,3.18023396 54.7007766,3.81969456 54.7007766,4.26116711 L54.7007766,7.66900888 L53.0687663,7.66900888 L53.0687663,0.108752229 L55.4744892,0.108752229 L57.954896,5.36218145 L57.9831853,5.36218145 C57.9393369,4.60066484 57.9175541,3.98881588 57.9175541,3.5266346 L57.9175541,0.108752229 L59.5588999,0.108752229 L59.5588999,7.66900888 Z" id="Fill-28"></path>
                <path d="M64.5161489,1.67552482 C64.0779475,1.67552482 63.7359297,1.87445417 63.4903785,2.27262664 C63.2448273,2.67079911 63.1220517,3.21989433 63.1220517,3.91959851 C63.1220517,5.37454394 63.6210751,6.10185977 64.6188391,6.10185977 C64.9204032,6.10185977 65.212066,6.05573577 65.495242,5.9622327 C65.7778522,5.86935717 66.0624426,5.75765551 66.3487305,5.6265002 L66.3487305,7.35348309 C65.7795495,7.63242345 65.1359677,7.77267806 64.417985,7.77267806 C63.3896686,7.77267806 62.6006797,7.44133832 62.05215,6.77960015 C61.5036203,6.11723444 61.2289311,5.16055369 61.2289311,3.90955791 C61.2289311,3.12701879 61.3621737,2.43923782 61.6278103,1.84621499 C61.893447,1.25319216 62.2759184,0.797286249 62.7749419,0.478183488 C63.2736824,0.159708265 63.8604027,-1.59872116e-14 64.534537,-1.59872116e-14 C65.2714735,-1.59872116e-14 65.9753116,0.177906849 66.6466169,0.532465472 L66.0825281,2.14084379 C65.8304703,2.00968848 65.5789783,1.89955567 65.3272035,1.80981782 C65.0754286,1.72070751 64.8049828,1.67552482 64.5161489,1.67552482" id="Fill-29"></path>
                <polygon id="Fill-30" points="72.1468227 7.66900888 68.0997539 7.66900888 68.0997539 0.108752229 72.1468227 0.108752229 72.1468227 1.74819365 69.9416709 1.74819365 69.9416709 2.93706323 71.9835934 2.93706323 71.9835934 4.57681842 69.9416709 4.57681842 69.9416709 6.00352466 72.1468227 6.00352466"></polygon>
            </g>
            <g id="Group-17">
                <g id="Group-3">
                    <mask id="mask-2" fill="white">
                        <use xlink:href="#path-1"></use>
                    </mask>
                    <g id="Clip-2"></g>
                    <path d="M10.7034901,12.4233613 C10.7034901,13.503446 10.4629009,14.4605898 9.98259682,15.2982029 C9.5014185,16.135816 8.80797619,16.7862359 7.90209505,17.2508984 C6.99621391,17.7141252 5.93332037,17.9474436 4.71376412,17.9474436 C3.69598105,17.9474436 2.84377787,17.8652437 2.15295827,17.704254 C1.46283805,17.5396748 0.745616584,17.257539 -0.000104908065,16.8521034 L-0.000104908065,12.6622434 C0.786880423,13.1217012 1.6065621,13.4817294 2.45596773,13.7385591 C3.30642244,13.9973631 4.08711329,14.1265856 4.79751573,14.1265856 C5.41000398,14.1265856 5.86023442,14.0054395 6.1457592,13.7631473 C6.43215822,13.521573 6.57395895,13.2094648 6.57395895,12.8286174 C6.57395895,12.5908121 6.51765829,12.3819024 6.40138519,12.2035035 C6.2866857,12.0243868 6.10169782,11.8443727 5.8478203,11.6627433 C5.59306855,11.4789602 4.91641154,11.1063686 3.81575109,10.5426355 C2.8180754,10.0271813 2.07095513,9.52698254 1.57211729,9.0422187 C1.07432852,8.55817275 0.705751519,8.00377234 0.464288124,7.37596637 C0.224573197,6.74995515 0.103928923,6.00638736 0.103928923,5.1488525 C0.103928923,3.54774985 0.616055124,2.29680428 1.6417063,1.40050267 C2.66560901,0.503124208 4.07312554,0.0553323559 5.86373136,0.0553323559 C7.44557012,0.0553323559 9.05905616,0.471357011 10.7034901,1.30448317 L9.4389982,4.93545591 C8.01050005,4.19099073 6.77678121,3.81552759 5.73784168,3.81552759 C5.20193632,3.81552759 4.81150347,3.923213 4.56829161,4.13840436 C4.32333128,4.35198043 4.20251216,4.61886078 4.20251216,4.93545591 C4.20251216,5.2773571 4.35672701,5.58210682 4.6662058,5.85167931 C4.97638398,6.12214918 5.81879574,6.61516891 7.19169261,7.32804636 C8.50828882,8.00377234 9.42308714,8.72741833 9.9350385,9.50167647 C10.4478641,10.2750372 10.7034901,11.2483339 10.7034901,12.4233613" id="Fill-1" fill="#FFFFFF" mask="url(#mask-2)"></path>
                </g>
                <path d="M18.2717055,14.5036634 C18.8861756,14.5036634 19.6208469,14.3579545 20.4765,14.0682174 L20.4765,17.2438979 C19.8618347,17.4986783 19.2766344,17.6783355 18.7191427,17.7867349 C18.164383,17.8934536 17.513228,17.9475692 16.7668488,17.9475692 C15.2346737,17.9475692 14.1302275,17.5892632 13.4537055,16.8719789 C12.7769883,16.1535182 12.4386297,15.0533909 12.4386297,13.5668915 L12.4386297,8.36086619 L10.8405,8.36086619 L10.8405,6.58731856 L12.8702613,5.21762149 L14.0484673,2.56393846 L17.0353502,2.56393846 L17.0353502,5.09560921 L20.2778558,5.09560921 L20.2778558,8.36086619 L17.0353502,8.36086619 L17.0353502,13.276146 C17.0353502,14.0944349 17.4474686,14.5036634 18.2717055,14.5036634" id="Fill-4" fill="#FFFFFF"></path>
                <path d="M25.6389815,14.6298191 C26.1177791,14.6298191 26.5273306,14.4489333 26.8696675,14.0889742 C27.2091262,13.7273838 27.3797867,13.2586757 27.3797867,12.6821248 L27.3797867,11.6234535 L26.468412,11.6718468 C25.1662789,11.72749 24.5151276,12.2966097 24.5151276,13.3792058 C24.5151276,14.2131292 24.889802,14.6298191 25.6389815,14.6298191 L25.6389815,14.6298191 Z M28.5744106,17.707234 L27.8150727,15.9039946 L27.7339751,15.9039946 C27.2015074,16.689706 26.6580349,17.2258385 26.1040653,17.514567 C25.5511116,17.8042018 24.836132,17.9475692 23.9587878,17.9475692 C22.8786149,17.9475692 22.0286983,17.5631416 21.4083608,16.7930176 C20.7871767,16.0228935 20.4765,14.9422912 20.4765,13.547223 C20.4765,12.0965116 20.9016276,11.0177217 21.7522214,10.3070471 C22.602138,9.59909125 23.8343478,9.19998249 25.4461418,9.11135208 L27.3593007,9.03921525 L27.3593007,8.8472733 C27.3593007,7.72462133 26.8933703,7.16456408 25.9623561,7.16456408 C25.1253068,7.16456408 24.062911,7.50077968 22.7744916,8.17502335 L21.6301517,5.07096496 C22.9664847,4.25426011 24.6526042,3.84590769 26.6912189,3.84590769 C28.1621502,3.84590769 29.3005644,4.27890988 30.1079852,5.14491426 C30.9133743,6.01091864 31.317,7.22038855 31.317,8.77332399 L31.317,17.707234 L28.5744106,17.707234 Z" id="Fill-6" fill="#FFFFFF"></path>
                <path d="M39.8817312,3.84590769 C40.1874854,3.84590769 40.4780347,3.87854445 40.7550351,3.94437114 L40.953,3.99268092 L40.6380626,8.50466682 C40.3497715,8.40712532 39.9508307,8.35881554 39.4407887,8.35881554 C38.6730159,8.35881554 38.1154021,8.59667667 37.7670441,9.07424281 C37.4188365,9.55199334 37.2442058,10.2388404 37.2442058,11.1355215 L37.2442058,17.9475692 L33.726,17.9475692 L33.726,4.09040681 L36.3444063,4.09040681 L36.8929874,6.30399041 L37.0644567,6.30399041 C37.3589201,5.57067746 37.7677968,4.97786852 38.2928931,4.52335094 C38.8179895,4.07178357 39.3476022,3.84590769 39.8817312,3.84590769" id="Fill-8" fill="#FFFFFF"></path>
                <path d="M48.383258,14.5036634 C48.997861,14.5036634 49.7344091,14.3579545 50.589,14.0682174 L50.589,17.2438979 C49.974397,17.4986783 49.3882803,17.6783355 48.8327962,17.7867349 C48.277117,17.8934536 47.6250525,17.9475692 46.8787488,17.9475692 C45.3467288,17.9475692 44.2421993,17.5892632 43.5657458,16.8719789 C42.8892922,16.1535182 42.5507728,15.0533909 42.5507728,13.5668915 L42.5507728,8.36086619 L40.953,8.36086619 L40.953,6.58731856 L42.9825558,5.21762149 L44.1606425,2.56393846 L47.147223,2.56393846 L47.147223,5.09560921 L50.3903759,5.09560921 L50.3903759,8.36086619 L47.147223,8.36086619 L47.147223,13.276146 C47.147223,14.0944349 47.5591046,14.5036634 48.383258,14.5036634" id="Fill-10" fill="#FFFFFF"></path>
                <path d="M61.4295,12.4063646 C61.4295,13.4897971 61.1858535,14.4499077 60.6994457,15.290117 C60.213038,16.1303263 59.5098982,16.7827622 58.5916199,17.2488651 C57.6751123,17.7135276 56.5987117,17.9475692 55.3645429,17.9475692 C54.3347113,17.9475692 53.4690224,17.8651146 52.7703093,17.7036259 C52.0714192,17.5385365 51.3450834,17.2555263 50.589,16.848834 L50.589,12.6459872 C51.3868716,13.1068691 52.2169696,13.4680132 53.0780547,13.725639 C53.9382545,13.9852451 54.7290433,14.1148682 55.4484734,14.1148682 C56.0687451,14.1148682 56.524697,13.9933466 56.8138502,13.7503034 C57.1028263,13.5079803 57.2474914,13.1949047 57.2474914,12.8128768 C57.2474914,12.5743344 57.18959,12.3647772 57.0727246,12.1858254 C56.9565675,12.0061535 56.7692289,11.8255814 56.5121251,11.643389 C56.254136,11.4590362 55.5688801,11.0852898 54.4540556,10.5198093 C53.444764,10.0027575 52.6872641,9.5010083 52.1820871,9.01474189 C51.6779725,8.52919561 51.3047117,7.97307679 51.0601798,7.34332489 C50.8165333,6.7153733 50.6952412,5.96950076 50.6952412,5.10930791 C50.6952412,3.50324252 51.2138754,2.24841954 52.2525604,1.34933977 C53.2894748,0.449179818 54.7147007,0 56.5282384,0 C58.1319496,0 59.7641689,0.417314156 61.4295,1.25302266 L60.1489392,4.89524987 C58.7022879,4.14847717 57.452714,3.77185025 56.4007489,3.77185025 C55.8580333,3.77185025 55.4626389,3.87986944 55.2163364,4.0957278 C54.9682631,4.30996587 54.8459086,4.57767344 54.8459086,4.89524987 C54.8459086,5.23821081 55.0020832,5.54390514 55.3154948,5.81431319 C55.6296147,6.0856214 56.4827317,6.58016928 57.8730751,7.29525635 C59.2055171,7.97307679 60.1328259,8.69896578 60.6503977,9.47562379 C61.1706256,10.2513816 61.4295,11.2276951 61.4295,12.4063646" id="Fill-12" fill="#FFFFFF"></path>
                <g id="Group-16" transform="translate(61.429500, 3.845908)">
                    <mask id="mask-4" fill="white">
                        <use xlink:href="#path-3"></use>
                    </mask>
                    <g id="Clip-15"></g>
                    <path d="M5.6608282,3.22396525 C5.21555871,3.22396525 4.84196595,3.39897049 4.54280051,3.74699226 C4.24266428,4.09411008 4.0672747,4.64082065 4.01598457,5.38170026 L7.26651659,5.38170026 C7.25341091,4.72832327 7.10342369,4.20439231 6.81639314,3.81261922 C6.52920079,3.42175009 6.14509113,3.22396525 5.6608282,3.22396525 M5.88168316,14.1008661 C4.05756679,14.1008661 2.64037366,13.5004607 1.63075098,12.2974805 C0.621937283,11.0937771 0.118096731,9.38187158 0.118096731,7.15760566 C0.118096731,4.86409696 0.586179813,3.10283559 1.52056619,1.87635262 C2.45527617,0.648965696 3.78995206,0.0357242092 5.52459386,0.0357242092 C7.17590942,0.0357242092 8.45055807,0.568694699 9.34999597,1.63572042 C10.2494339,2.7036501 10.6997191,4.240912 10.6997191,6.24642137 L10.6997191,8.33400965 L3.93783589,8.33400965 C3.96388545,9.09296831 4.18878538,9.6888539 4.61043229,10.1207625 C5.03288819,10.5517671 5.60953807,10.7678118 6.33763136,10.7678118 C7.00051984,10.7678118 7.61292719,10.6902527 8.16919046,10.5335073 C8.72771891,10.3785698 9.33203634,10.1126269 9.98359892,9.73622102 L9.98359892,13.105795 C9.3899602,13.4820201 8.77674386,13.7409121 8.14540608,13.8859061 C7.5143919,14.0289114 6.75846928,14.1008661 5.88168316,14.1008661" id="Fill-14" fill="#FFFFFF" mask="url(#mask-4)"></path>
                </g>
            </g>
        </g>
    </g>
</svg>