
<svg width="87px" height="24px" viewBox="0 0 87 24" version="1.1" xmlns="http://www.w3.org/2000/svg" xmlns:xlink="http://www.w3.org/1999/xlink">
    <defs>
        <polygon id="path-1" points="0.0296923295 0.295822222 7.91936847 0.295822222 7.91936847 9.11466667 0.0296923295 9.11466667"></polygon>
    </defs>
    <g id="Page-1" stroke="none" stroke-width="1" fill="none" fill-rule="evenodd">
        <g id="Group" transform="translate(-42.000000, 0.000000)">
            <g id="Group-32" transform="translate(42.400000, 0.000000)">
                <g id="Group-31">
                    <path d="M12.2396024,8.99736889 L9.36564077,8.99736889 L6.40280412,2.96181333 L6.35264361,2.96181333 C6.42333963,3.91114667 6.45835099,4.63541333 6.45835099,5.13603556 L6.45835099,8.99736889 L4.51623026,8.99736889 L4.51623026,0.430257778 L7.37908253,0.430257778 L10.3308098,6.38368 L10.3641379,6.38368 C10.3119575,5.52074667 10.2863723,4.82705778 10.2863723,4.30368 L10.2863723,0.430257778 L12.2396024,0.430257778 L12.2396024,8.99736889 Z" id="Fill-2" fill="#FFFFFF"></path>
                    <path d="M22.2808278,8.99736889 L19.4068662,8.99736889 L16.4440295,2.96181333 L16.393869,2.96181333 C16.4645651,3.91114667 16.4995764,4.63541333 16.4995764,5.13603556 L16.4995764,8.99736889 L14.5574557,8.99736889 L14.5574557,0.430257778 L17.420308,0.430257778 L20.3720352,6.38368 L20.4053634,6.38368 C20.353183,5.52074667 20.3275977,4.82705778 20.3275977,4.30368 L20.3275977,0.430257778 L22.2808278,0.430257778 L22.2808278,8.99736889 Z" id="Fill-4" fill="#FFFFFF"></path>
                    <g id="Group-8" transform="translate(24.238636, 0.000000)">
                        <mask id="mask-2" fill="white">
                            <use xlink:href="#path-1"></use>
                        </mask>
                        <g id="Clip-7"></g>
                        <path d="M2.33774915,4.70222222 C2.33774915,6.3584 2.88311847,7.18648889 3.9745304,7.18648889 C4.5296625,7.18648889 4.94070938,6.9856 5.20901761,6.58346667 C5.4769892,6.18062222 5.61131165,5.55377778 5.61131165,4.70222222 C5.61131165,3.84675556 5.47530597,3.21457778 5.20363125,2.80675556 C4.93128324,2.39857778 4.52562273,2.19413333 3.98597642,2.19413333 C2.88715824,2.19413333 2.33774915,3.0304 2.33774915,4.70222222 M7.91936847,4.70222222 C7.91936847,6.144 7.58440398,7.23946667 6.9151483,7.98968889 C6.24555597,8.7392 5.26523778,9.11466667 3.9745304,9.11466667 C2.70200199,9.11466667 1.72673352,8.73777778 1.0480517,7.98364444 C0.368696591,7.22951111 0.0296923295,6.13191111 0.0296923295,4.69048889 C0.0296923295,3.26471111 0.367013352,2.17564444 1.04232869,1.42328889 C1.71730739,0.671644444 2.69829886,0.295466667 3.98597642,0.295466667 C5.27634716,0.295466667 6.2549821,0.6688 6.92019801,1.41475556 C7.58642386,2.16106667 7.91936847,3.25724444 7.91936847,4.70222222" id="Fill-6" fill="#FFFFFF" mask="url(#mask-2)"></path>
                    </g>
                    <path d="M38.5194686,0.430328889 L40.9716107,0.430328889 L38.3141135,8.99744 L35.734382,8.99744 L33.0876575,0.430328889 L35.5515822,0.430328889 L36.6551135,4.77272889 C36.8847072,5.73770667 37.0106135,6.40899556 37.0324956,6.78837333 C37.0580808,6.51495111 37.1099246,6.17290667 37.1880268,5.76259556 C37.2654558,5.35264 37.3337953,5.03050667 37.393382,4.79584 L38.5194686,0.430328889 Z" id="Fill-9" fill="#FFFFFF"></path>
                    <path d="M46.1469972,5.49354667 L45.7975568,4.08661333 C45.7160881,3.77408 45.6171136,3.36981333 45.5006335,2.87416889 C45.3838168,2.37781333 45.3073977,2.02225778 45.2703665,1.80750222 C45.2367017,2.00625778 45.171392,2.33479111 45.0734276,2.79168 C44.9754631,3.24928 44.7579886,4.14954667 44.4213409,5.49354667 L46.1469972,5.49354667 Z M47.0014091,8.99719111 L46.6018082,7.39221333 L43.9665298,7.39221333 L43.5558196,8.99719111 L41.1477784,8.99719111 L43.7945028,0.395235556 L46.7182884,0.395235556 L49.3983409,8.99719111 L47.0014091,8.99719111 Z" id="Fill-11" fill="#FFFFFF"></path>
                    <polygon id="Fill-13" fill="#FFFFFF" points="53.7978217 8.99736889 51.606245 8.99736889 51.606245 2.32288 49.6254098 2.32288 49.6254098 0.430257778 55.7729339 0.430257778 55.7729339 2.32288 53.7978217 2.32288"></polygon>
                    <polygon id="Fill-15" fill="#FFFFFF" points="57.4368153 8.99733333 59.6398381 8.99733333 59.6398381 0.430222222 57.4368153 0.430222222"></polygon>
                    <polygon id="Fill-15" fill="#FFFFFF" points="0 8.99733333 2.20302273 8.99733333 2.20302273 0.430222222 0 0.430222222"></polygon>
                    <path d="M63.948222,4.70222222 C63.948222,6.3584 64.4935913,7.18648889 65.5850033,7.18648889 C66.1401354,7.18648889 66.5508456,6.9856 66.8194905,6.58346667 C67.0874621,6.18062222 67.2217845,5.55377778 67.2217845,4.70222222 C67.2217845,3.84675556 67.0854422,3.21457778 66.8141041,2.80675556 C66.5417561,2.39857778 66.1360956,2.19413333 65.5961126,2.19413333 C64.4972945,2.19413333 63.948222,3.0304 63.948222,4.70222222 M69.5298413,4.70222222 C69.5298413,6.144 69.1948768,7.23946667 68.5256212,7.98968889 C67.8560288,8.7392 66.8757107,9.11466667 65.5850033,9.11466667 C64.3121382,9.11466667 63.3372064,8.73777778 62.6585246,7.98364444 C61.9791695,7.22951111 61.6401652,6.13191111 61.6401652,4.69048889 C61.6401652,3.26471111 61.9774862,2.17564444 62.6528016,1.42328889 C63.3277803,0.671644444 64.3087717,0.295466667 65.5961126,0.295466667 C66.88682,0.295466667 67.865455,0.6688 68.5306709,1.41475556 C69.1968967,2.16106667 69.5298413,3.25724444 69.5298413,4.70222222" id="Fill-17" fill="#FFFFFF"></path>
                    <path d="M79.2663669,8.99736889 L76.3924053,8.99736889 L73.4299053,2.96181333 L73.3797447,2.96181333 C73.4501041,3.91114667 73.4851155,4.63541333 73.4851155,5.13603556 L73.4851155,8.99736889 L71.5433314,8.99736889 L71.5433314,0.430257778 L74.405847,0.430257778 L77.3575743,6.38368 L77.3912391,6.38368 C77.3390587,5.52074667 77.3131368,4.82705778 77.3131368,4.30368 L77.3131368,0.430257778 L79.2663669,0.430257778 L79.2663669,8.99736889 Z" id="Fill-18" fill="#FFFFFF"></path>
                    <polygon id="Fill-19" fill="#FFFFFF" points="0 22.9941333 2.20302273 22.9941333 2.20302273 14.4270222 0 14.4270222"></polygon>
                    <path d="M12.2396024,22.9938844 L9.36564077,22.9938844 L6.40280412,16.9579733 L6.35264361,16.9579733 C6.42333963,17.9073067 6.45835099,18.6319289 6.45835099,19.1321956 L6.45835099,22.9938844 L4.51623026,22.9938844 L4.51623026,14.4267733 L7.37908253,14.4267733 L10.3308098,20.37984 L10.3641379,20.37984 C10.3119575,19.5169067 10.2863723,18.8235733 10.2863723,18.29984 L10.2863723,14.4267733 L12.2396024,14.4267733 L12.2396024,22.9938844 Z" id="Fill-20" fill="#FFFFFF"></path>
                    <polygon id="Fill-21" fill="#FFFFFF" points="18.0816187 22.9938844 15.890042 22.9938844 15.890042 16.3193956 13.9095435 16.3193956 13.9095435 14.4267733 20.056731 14.4267733 20.056731 16.3193956 18.0816187 16.3193956"></polygon>
                    <polygon id="Fill-22" fill="#FFFFFF" points="26.5365938 22.9938844 21.7201747 22.9938844 21.7201747 14.4267733 26.5365938 14.4267733 26.5365938 16.2845511 23.9124247 16.2845511 23.9124247 17.6317511 26.342348 17.6317511 26.342348 19.4898844 23.9124247 19.4898844 23.9124247 21.1065956 26.5365938 21.1065956"></polygon>
                    <polygon id="Fill-23" fill="#FFFFFF" points="28.6429649 22.9938844 28.6429649 14.4267733 30.8352149 14.4267733 30.8352149 21.1243733 33.9586325 21.1243733 33.9586325 22.9938844"></polygon>
                    <polygon id="Fill-24" fill="#FFFFFF" points="35.6905168 22.9938844 35.6905168 14.4267733 37.8824301 14.4267733 37.8824301 21.1243733 41.0058477 21.1243733 41.0058477 22.9938844"></polygon>
                    <polygon id="Fill-25" fill="#FFFFFF" points="42.7381023 22.9941333 44.941125 22.9941333 44.941125 14.4270222 42.7381023 14.4270222"></polygon>
                    <path d="M50.4977651,17.9775644 L53.9982281,17.9775644 L53.9982281,22.5951644 C53.0482082,22.9393422 52.0032537,23.1110756 50.8637011,23.1110756 C49.6133915,23.1110756 48.6475491,22.7281422 47.9651642,21.9622756 C47.2824426,21.19712 46.9410818,20.1044978 46.9410818,18.6868978 C46.9410818,17.3034311 47.3147608,16.22752 48.0621188,15.4577422 C48.8091401,14.68832 49.8561145,14.3036089 51.2023688,14.3036089 C51.7127267,14.3036089 52.1944696,14.3548089 52.6475974,14.4557867 C53.1003886,14.5574756 53.4956131,14.6865422 53.8319241,14.8429867 L53.1387665,16.6591644 C52.5540094,16.3544533 51.9126955,16.2022756 51.2131415,16.2022756 C50.5735108,16.2022756 50.0786386,16.4216533 49.7291983,16.8614756 C49.379758,17.3012978 49.2047011,17.9288533 49.2047011,18.7452089 C49.2047011,19.5462756 49.3632622,20.1564089 49.6793744,20.5766756 C49.9954866,20.9965867 50.4513077,21.2063644 51.0468375,21.2063644 C51.3723759,21.2063644 51.6716557,21.1732978 51.9456869,21.1068089 L51.9456869,19.7649422 L50.4977651,19.7649422 L50.4977651,17.9775644 Z" id="Fill-26" fill="#FFFFFF"></path>
                    <polygon id="Fill-27" fill="#FFFFFF" points="61.0462849 22.9938844 56.2298659 22.9938844 56.2298659 14.4267733 61.0462849 14.4267733 61.0462849 16.2845511 58.4221159 16.2845511 58.4221159 17.6317511 60.8520392 17.6317511 60.8520392 19.4898844 58.4221159 19.4898844 58.4221159 21.1065956 61.0462849 21.1065956"></polygon>
                    <path d="M70.8761293,22.9938844 L68.0021676,22.9938844 L65.0396676,16.9579733 L64.9895071,16.9579733 C65.0598665,17.9073067 65.0948778,18.6319289 65.0948778,19.1321956 L65.0948778,22.9938844 L63.1527571,22.9938844 L63.1527571,14.4267733 L66.0156094,14.4267733 L68.9673366,20.37984 L69.0010014,20.37984 C68.948821,19.5169067 68.9228991,18.8235733 68.9228991,18.29984 L68.9228991,14.4267733 L70.8761293,14.4267733 L70.8761293,22.9938844 Z" id="Fill-28" fill="#FFFFFF"></path>
                    <path d="M76.775342,16.2022044 C76.2538747,16.2022044 75.8468676,16.4276267 75.5546574,16.8788267 C75.2624472,17.3300267 75.116342,17.9522489 75.116342,18.7451378 C75.116342,20.3938489 75.7101886,21.2180267 76.8975452,21.2180267 C77.2564116,21.2180267 77.6034955,21.16576 77.9404798,21.0598044 C78.2767909,20.95456 78.6154585,20.8279822 78.956146,20.67936 L78.956146,22.6363378 C78.2788108,22.9524267 77.5129372,23.11136 76.6585253,23.11136 C75.4348108,23.11136 74.4959003,22.7358933 73.8431403,21.9860267 C73.1903804,21.2354489 72.8634955,20.15136 72.8634955,18.73376 C72.8634955,17.8470044 73.0220565,17.0676267 73.3381688,16.3956267 C73.654281,15.7236267 74.1094287,15.2070044 74.7032753,14.8454044 C75.2967852,14.4845156 75.9949926,14.3035378 76.7972241,14.3035378 C77.6741915,14.3035378 78.511771,14.5051378 79.3106361,14.9069156 L78.6393605,16.7294933 C78.3394074,16.5808711 78.0401276,16.4560711 77.7405111,16.3543822 C77.4408946,16.2534044 77.1190594,16.2022044 76.775342,16.2022044" id="Fill-29" fill="#FFFFFF"></path>
                    <polygon id="Fill-30" fill="#FFFFFF" points="85.8559768 22.9938844 81.0398945 22.9938844 81.0398945 14.4267733 85.8559768 14.4267733 85.8559768 16.2845511 83.2318078 16.2845511 83.2318078 17.6317511 85.6617311 17.6317511 85.6617311 19.4898844 83.2318078 19.4898844 83.2318078 21.1065956 85.8559768 21.1065956"></polygon>
                </g>
            </g>
        </g>
    </g>
</svg>