<svg xmlns="http://www.w3.org/2000/svg" width="239" height="43" viewBox="0 0 239 43">
  <path fill="#FFF" fill-rule="evenodd" d="M51.0882511,9.65306122 C49.6730514,9.65306122 48.3413403,9.15008987 47.3401618,8.23888277 C45.2755305,6.35476577 45.2755305,3.29455589 47.3401618,1.41355519 C48.3413403,0.501724838 49.6730514,0 51.0882511,0 C52.5034508,0 53.8358462,0.501724838 54.8370247,1.41355519 C55.8368346,2.32351577 56.3890909,3.53638103 56.3890909,4.82528409 C56.3890909,6.11418715 55.8368346,7.32767567 54.8370247,8.23888277 C53.8358462,9.15008987 52.5034508,9.65306122 51.0882511,9.65306122 Z M18.414851,33.3469388 C19.8301535,33.3469388 21.1605926,33.8474171 22.1618438,34.7573777 C24.2307314,36.6414947 24.2307314,39.7035743 22.163897,41.5864448 C21.1626458,42.4976519 19.8301535,43 18.414851,43 C17.0016017,43 15.6691094,42.4976519 14.6685426,41.5864448 C13.6672913,40.6746144 13.1163636,39.4617492 13.1163636,38.1722229 C13.1163636,36.8833198 13.6672913,35.6710778 14.6685426,34.7592474 C15.6711626,33.8474171 17.0016017,33.3469388 18.414851,33.3469388 Z M62.2100246,10.5306122 L68.7527273,16.7361921 L51.2282366,33.3469388 L40.2464487,22.9377519 L29.263247,33.3469388 L27.5667813,31.7389284 L22.7191306,27.1440389 L18.2814591,22.9377519 L7.29896428,33.3469388 L0.752727273,27.1453789 L18.2814591,10.5306122 L29.263247,20.9397991 L40.2464487,10.5306122 L51.2282366,20.9397991 L62.2100246,10.5306122 Z M86.3993395,10.3128301 C86.3993395,11.2127672 86.1377271,12.0117802 85.6144944,12.7098931 C85.0912618,13.4080061 84.3367564,13.9506071 83.3509558,14.3377123 C82.3651551,14.7248176 81.2087524,14.9183673 79.8817131,14.9183673 C78.7745831,14.9183673 77.8456695,14.8505422 77.0949444,14.7148899 C76.3442193,14.5792377 75.5631736,14.3426769 74.7517838,14.0052005 L74.7517838,10.5113447 C75.608672,10.8951413 76.4996708,11.1945644 77.4248068,11.4096229 C78.3499428,11.6246814 79.1992353,11.7322091 79.9727096,11.7322091 C80.6400208,11.7322091 81.1291223,11.6312985 81.4400287,11.4294744 C81.750935,11.2276503 81.9063859,10.9679297 81.9063859,10.6503048 C81.9063859,10.4517893 81.8438264,10.2780908 81.7187055,10.1292042 C81.5935847,9.98031753 81.392636,9.82977885 81.1158535,9.67758361 C80.839071,9.52538837 80.1016274,9.21438537 78.9035004,8.74456529 C77.8191197,8.31444831 77.0058463,7.89757196 76.463656,7.49392372 C75.9214656,7.09027548 75.5195683,6.62707953 75.257952,6.10432197 C74.9963356,5.58156441 74.8655294,4.96286696 74.8655294,4.24821106 C74.8655294,2.91153984 75.4228776,1.86934895 76.5375907,1.12160713 C77.6523037,0.373865303 79.1840633,0 81.1329154,0 C82.854275,0 84.6097321,0.347396963 86.3993395,1.04220131 L85.023017,4.06954798 C83.4684852,3.44753266 82.1262998,3.13652966 80.9964206,3.13652966 C80.4125233,3.13652966 79.987877,3.22586031 79.7224692,3.40452428 C79.4570613,3.58318826 79.3243594,3.80486061 79.3243594,4.06954798 C79.3243594,4.3540869 79.4930804,4.60884468 79.8305275,4.83382894 C80.1679747,5.05881321 81.0836181,5.46907248 82.5774853,6.06461906 C84.0106878,6.62707972 85.0059523,7.23088873 85.5633089,7.8760642 C86.1206654,8.52123966 86.3993395,9.33348685 86.3993395,10.3128301 Z M96.5766825,14.7198528 L92.0837289,14.7198528 L92.0837289,3.41445001 L88.0230088,3.41445001 L88.0230088,0.208440262 L100.626028,0.208440262 L100.626028,3.41445001 L96.5766825,3.41445001 L96.5766825,14.7198528 Z M110.165595,14.7198528 L109.346626,12.0002037 L103.943707,12.0002037 L103.101989,14.7198528 L98.1654274,14.7198528 L103.591095,0.148885902 L109.585492,0.148885902 L115.079407,14.7198528 L110.165595,14.7198528 Z M108.413911,8.7842682 L107.697314,6.40209377 C107.530486,5.87271903 107.327642,5.18785073 107.088774,4.34746833 C106.849907,3.50708593 106.692561,2.90493119 106.61673,2.54098606 C106.548482,2.87846245 106.413885,3.43429759 106.212933,4.20850815 C106.011981,4.98271871 105.566482,6.50795681 104.876421,8.7842682 L108.413911,8.7842682 Z M121.420664,9.43936617 L121.420664,14.7198528 L116.927711,14.7198528 L116.927711,0.208440262 L122.376128,0.208440262 C126.895645,0.208440262 129.155369,1.63773063 129.155369,4.49635423 C129.155369,6.17711904 128.215081,7.47737624 126.334477,8.39716485 L131.180042,14.7198528 L126.084236,14.7198528 L122.558121,9.43936617 L121.420664,9.43936617 Z M121.420664,6.49142531 L122.262382,6.49142531 C123.83208,6.49142531 124.616917,5.88596203 124.616917,4.67501731 C124.616917,3.67582249 123.847246,3.17623257 122.30788,3.17623257 L121.420664,3.17623257 L121.420664,6.49142531 Z M139.770751,14.7198528 L135.277798,14.7198528 L135.277798,3.41445001 L131.217077,3.41445001 L131.217077,0.208440262 L143.820097,0.208440262 L143.820097,3.41445001 L139.770751,3.41445001 L139.770751,14.7198528 Z M157.122588,10.3128301 C157.122588,11.2127672 156.860976,12.0117802 156.337743,12.7098931 C155.81451,13.4080061 155.060005,13.9506071 154.074204,14.3377123 C153.088404,14.7248176 151.932001,14.9183673 150.604962,14.9183673 C149.497832,14.9183673 148.568918,14.8505422 147.818193,14.7148899 C147.067468,14.5792377 146.286422,14.3426769 145.475032,14.0052005 L145.475032,10.5113447 C146.331921,10.8951413 147.22292,11.1945644 148.148056,11.4096229 C149.073192,11.6246814 149.922484,11.7322091 150.695958,11.7322091 C151.36327,11.7322091 151.852371,11.6312985 152.163277,11.4294744 C152.474184,11.2276503 152.629635,10.9679297 152.629635,10.6503048 C152.629635,10.4517893 152.567075,10.2780908 152.441954,10.1292042 C152.316833,9.98031753 152.115885,9.82977885 151.839102,9.67758361 C151.56232,9.52538837 150.824876,9.21438537 149.626749,8.74456529 C148.542368,8.31444831 147.729095,7.89757196 147.186905,7.49392372 C146.644714,7.09027548 146.242817,6.62707953 145.981201,6.10432197 C145.719584,5.58156441 145.588778,4.96286696 145.588778,4.24821106 C145.588778,2.91153984 146.146126,1.86934895 147.260839,1.12160713 C148.375552,0.373865303 149.907312,0 151.856164,0 C153.577524,0 155.332981,0.347396963 157.122588,1.04220131 L155.746266,4.06954798 C154.191734,3.44753266 152.849548,3.13652966 151.719669,3.13652966 C151.135772,3.13652966 150.711126,3.22586031 150.445718,3.40452428 C150.18031,3.58318826 150.047608,3.80486061 150.047608,4.06954798 C150.047608,4.3540869 150.216329,4.60884468 150.553776,4.83382894 C150.891223,5.05881321 151.806867,5.46907248 153.300734,6.06461906 C154.733936,6.62707972 155.729201,7.23088873 156.286558,7.8760642 C156.843914,8.52123966 157.122588,9.33348685 157.122588,10.3128301 Z M169.605838,14.7198528 L159.732714,14.7198528 L159.732714,0.208440262 L169.605838,0.208440262 L169.605838,3.35489565 L164.225668,3.35489565 L164.225668,5.63781281 L169.207728,5.63781281 L169.207728,8.7842682 L164.225668,8.7842682 L164.225668,11.5237688 L169.605838,11.5237688 L169.605838,14.7198528 Z M74.7517838,42.8014855 L74.7517838,28.2900729 L79.19609,28.2900729 L79.19609,42.8014855 L74.7517838,42.8014855 Z M98.6110118,42.8014855 L92.8121437,42.8014855 L86.83416,32.5779869 L86.7334074,32.5779869 C86.875208,34.1859627 86.9461072,35.4134319 86.9461072,36.2604315 L86.9461072,42.8014855 L83.0279531,42.8014855 L83.0279531,28.2900729 L88.8044317,28.2900729 L94.760026,38.3746113 L94.8271944,38.3746113 C94.7227097,36.9122136 94.6704682,35.737681 94.6704682,34.8509783 L94.6704682,28.2900729 L98.6110118,28.2900729 L98.6110118,42.8014855 Z M109.55801,42.8014855 L105.136093,42.8014855 L105.136093,31.4960827 L101.139576,31.4960827 L101.139576,28.2900729 L113.543332,28.2900729 L113.543332,31.4960827 L109.55801,31.4960827 L109.55801,42.8014855 Z M125.777455,42.8014855 L116.060433,42.8014855 L116.060433,28.2900729 L125.777455,28.2900729 L125.777455,31.4365283 L120.48235,31.4365283 L120.48235,33.7194455 L125.38564,33.7194455 L125.38564,36.8659009 L120.48235,36.8659009 L120.48235,39.6054014 L125.777455,39.6054014 L125.777455,42.8014855 Z M129.187537,42.8014855 L129.187537,28.2900729 L133.609454,28.2900729 L133.609454,39.6351786 L139.912084,39.6351786 L139.912084,42.8014855 L129.187537,42.8014855 Z M142.564614,42.8014855 L142.564614,28.2900729 L146.986531,28.2900729 L146.986531,39.6351786 L153.289162,39.6351786 L153.289162,42.8014855 L142.564614,42.8014855 Z M155.941692,42.8014855 L155.941692,28.2900729 L160.385998,28.2900729 L160.385998,42.8014855 L155.941692,42.8014855 Z M170.761653,34.3050633 L177.825526,34.3050633 L177.825526,42.126536 C175.907486,42.7088483 173.799167,43 171.500505,43 C168.977948,43 167.028219,42.3515257 165.651261,41.0545576 C164.274303,39.7575894 163.585834,37.9081142 163.585834,35.5060763 C163.585834,33.1635931 164.339605,31.3405861 165.847169,30.0370008 C167.354733,28.7334155 169.466783,28.0816327 172.183384,28.0816327 C173.213304,28.0816327 174.185369,28.1676548 175.09961,28.3397015 C176.01385,28.5117483 176.810534,28.7301121 177.489684,28.9947995 L176.090343,32.0717748 C174.911159,31.5556344 173.616316,31.2975681 172.205773,31.2975681 C170.914642,31.2975681 169.916455,31.6697792 169.211184,32.4142124 C168.505913,33.1586456 168.153282,34.222342 168.153282,35.6053336 C168.153282,36.9618563 168.472329,37.9957759 169.110431,38.7071232 C169.748534,39.4184705 170.668358,39.7741388 171.869931,39.7741388 C172.526692,39.7741388 173.131201,39.7178936 173.683477,39.6054014 L173.683477,37.33241 L170.761653,37.33241 L170.761653,34.3050633 Z M191.214174,42.8014855 L181.497152,42.8014855 L181.497152,28.2900729 L191.214174,28.2900729 L191.214174,31.4365283 L185.919069,31.4365283 L185.919069,33.7194455 L190.822359,33.7194455 L190.822359,36.8659009 L185.919069,36.8659009 L185.919069,39.6054014 L191.214174,39.6054014 L191.214174,42.8014855 Z M210.207314,42.8014855 L204.408446,42.8014855 L198.430462,32.5779869 L198.32971,32.5779869 C198.471511,34.1859627 198.54241,35.4134319 198.54241,36.2604315 L198.54241,42.8014855 L194.624256,42.8014855 L194.624256,28.2900729 L200.400734,28.2900729 L206.356329,38.3746113 L206.423497,38.3746113 C206.319012,36.9122136 206.266771,35.737681 206.266771,34.8509783 L206.266771,28.2900729 L210.207314,28.2900729 L210.207314,42.8014855 Z M221.269627,31.2975681 C220.217318,31.2975681 219.396379,31.6797048 218.806787,32.4439896 C218.217195,33.2082744 217.922404,34.2620451 217.922404,35.6053336 C217.922404,38.3977853 219.120228,39.7939903 221.515911,39.7939903 C222.23984,39.7939903 222.941369,39.7046596 223.620519,39.5259956 C224.29967,39.3473317 224.982541,39.1322764 225.669154,38.8808234 L225.669154,42.1960161 C224.303391,42.7320081 222.758534,43 221.034538,43 C218.564223,43 216.670467,42.3647598 215.353214,41.0942605 C214.035962,39.8237611 213.377345,37.98752 213.377345,35.5854821 C213.377345,34.0833813 213.696392,32.7632728 214.334494,31.6251171 C214.972597,30.4869614 215.890555,29.6118519 217.088397,28.9997624 C218.286239,28.3876728 219.694894,28.0816327 221.314406,28.0816327 C223.083181,28.0816327 224.773568,28.4224125 226.385617,29.1039825 L225.031055,32.1908835 C224.426537,31.9394305 223.822028,31.7276838 223.217509,31.555637 C222.612991,31.3835902 221.963704,31.2975681 221.269627,31.2975681 Z M238.751784,42.8014855 L229.034762,42.8014855 L229.034762,28.2900729 L238.751784,28.2900729 L238.751784,31.4365283 L233.456678,31.4365283 L233.456678,33.7194455 L238.359968,33.7194455 L238.359968,36.8659009 L233.456678,36.8659009 L233.456678,39.6054014 L238.751784,39.6054014 L238.751784,42.8014855 Z"/>
</svg>
