<?xml version="1.0" encoding="UTF-8"?>
<svg width="202px" height="53px" viewBox="0 0 202 53" version="1.1" xmlns="http://www.w3.org/2000/svg" xmlns:xlink="http://www.w3.org/1999/xlink">
    <!-- Generator: Sketch 53.2 (72643) - https://sketchapp.com -->
    <title>logo</title>
    <desc>Created with Sketch.</desc>
    <defs>
        <polygon id="path-1" points="0 0.0837402651 16.6681199 0.0837402651 16.6681199 27.1617512 0 27.1617512"></polygon>
        <polygon id="path-3" points="0.183907347 0.0540651975 16.6620208 0.0540651975 16.6620208 21.3403215 0.183907347 21.3403215"></polygon>
    </defs>
    <g id="Page-1" stroke="none" stroke-width="1" fill="none" fill-rule="evenodd">
        <g id="Style" transform="translate(-271.000000, -105.000000)">
            <g id="logo" transform="translate(271.000000, 105.000000)">
                <g id="Group-6" transform="translate(89.320000, 0.000000)">
                    <g id="Group-4" transform="translate(0.000000, 34.284444)" fill="#FFFFFF">
                        <polygon id="Fill-19" points="2.73114864e-14 11.6066489 2.88288194 11.6066489 2.88288194 0.16491857 2.73114864e-14 0.16491857"></polygon>
                        <path d="M16.0167793,11.6063165 L12.2559047,11.6063165 L8.37872808,3.5451082 L8.31308789,3.5451082 C8.40560091,4.81298204 8.45141688,5.78074491 8.45141688,6.44887169 L8.45141688,11.6063165 L5.90995204,11.6063165 L5.90995204,0.164586169 L9.65628885,0.164586169 L13.5189277,8.11515232 L13.562541,8.11515232 C13.4942576,6.96266925 13.4607767,6.03669398 13.4607767,5.3372265 L13.4607767,0.164586169 L16.0167793,0.164586169 L16.0167793,11.6063165 Z" id="Fill-20"></path>
                        <polygon id="Fill-21" points="23.6616589 11.6063165 20.7937552 11.6063165 20.7937552 2.69226123 18.202069 2.69226123 18.202069 0.164586169 26.2462964 0.164586169 26.2462964 2.69226123 23.6616589 2.69226123"></polygon>
                        <polygon id="Fill-22" points="34.7258637 11.6063165 28.4230838 11.6063165 28.4230838 0.164586169 34.7258637 0.164586169 34.7258637 2.64572504 31.2918685 2.64572504 31.2918685 4.44496622 34.4716732 4.44496622 34.4716732 6.92657996 31.2918685 6.92657996 31.2918685 9.08576435 34.7258637 9.08576435"></polygon>
                        <polygon id="Fill-23" points="37.4822671 11.6063165 37.4822671 0.164586169 40.3510519 0.164586169 40.3510519 9.1095073 44.4383652 9.1095073 44.4383652 11.6063165"></polygon>
                        <polygon id="Fill-24" points="46.704714 11.6063165 46.704714 0.164586169 49.5730582 0.164586169 49.5730582 9.1095073 53.6603715 9.1095073 53.6603715 11.6063165"></polygon>
                        <polygon id="Fill-25" points="55.9272049 11.6066489 58.8100868 11.6066489 58.8100868 0.16491857 55.9272049 0.16491857"></polygon>
                        <path d="M66.0815221,4.9068142 L70.6622383,4.9068142 L70.6622383,11.0738095 C69.4190395,11.5334731 68.0516089,11.7628301 66.5603872,11.7628301 C64.9242283,11.7628301 63.6603242,11.2514068 62.7673533,10.2285603 C61.8739418,9.20666348 61.4272361,7.74742142 61.4272361,5.85415813 C61.4272361,4.00648132 61.9162335,2.56955764 62.8942283,1.54148766 C63.8717826,0.513892533 65.2418563,9.49718228e-05 67.0035686,9.49718228e-05 C67.6714245,9.49718228e-05 68.3018346,0.0684746843 68.894799,0.203334673 C69.4873229,0.339144379 70.0045148,0.511518238 70.4446124,0.720456248 L69.5375443,3.1460366 C68.7723294,2.73908234 67.9331042,2.53584264 67.0176658,2.53584264 C66.1806432,2.53584264 65.5330521,2.82883072 65.0757734,3.41623144 C64.6184948,4.00363216 64.3894149,4.8417585 64.3894149,5.93203503 C64.3894149,7.00189261 64.5969084,7.81675085 65.0105738,8.37803432 C65.4242391,8.93884294 66.0207279,9.21900982 66.8000399,9.21900982 C67.2260404,9.21900982 67.6176788,9.17484792 67.9762769,9.08604926 L67.9762769,7.29393097 L66.0815221,7.29393097 L66.0815221,4.9068142 Z" id="Fill-26"></path>
                        <polygon id="Fill-27" points="79.8853459 11.6063165 73.582566 11.6063165 73.582566 0.164586169 79.8853459 0.164586169 79.8853459 2.64572504 76.4513507 2.64572504 76.4513507 4.44496622 79.6311554 4.44496622 79.6311554 6.92657996 76.4513507 6.92657996 76.4513507 9.08576435 79.8853459 9.08576435"></polygon>
                        <path d="M92.7487088,11.6063165 L88.9878342,11.6063165 L85.1110981,3.5451082 L85.0454579,3.5451082 C85.1375304,4.81298204 85.1833464,5.78074491 85.1833464,6.44887169 L85.1833464,11.6063165 L82.6418815,11.6063165 L82.6418815,0.164586169 L86.3882183,0.164586169 L90.2508572,8.11515232 L90.294911,8.11515232 C90.2266276,6.96266925 90.1927062,6.03669398 90.1927062,5.3372265 L90.1927062,0.164586169 L92.7487088,0.164586169 L92.7487088,11.6063165 Z" id="Fill-28"></path>
                        <path d="M100.468436,2.53574767 C99.7860421,2.53574767 99.2534314,2.83680835 98.8710443,3.43940456 C98.4886571,4.04200078 98.2974635,4.87300423 98.2974635,5.93194005 C98.2974635,8.13386177 99.0745729,9.23458519 100.628351,9.23458519 C101.097965,9.23458519 101.55216,9.1647809 101.993138,9.02327289 C102.433236,8.88271459 102.876418,8.71366475 103.322242,8.51517364 L103.322242,11.1287982 C102.435879,11.550948 101.433655,11.76321 100.315569,11.76321 C98.7142127,11.76321 97.4855516,11.2617588 96.6313481,10.2602809 C95.7771445,9.25785329 95.3493819,7.81000785 95.3493819,5.91674456 C95.3493819,4.73244593 95.5568754,3.69155475 95.9705408,2.79407103 C96.3842062,1.8965873 96.9798138,1.20661701 97.7569232,0.72368529 C98.533592,0.241703289 99.4472682,-1.59872116e-14 100.497071,-1.59872116e-14 C101.644673,-1.59872116e-14 102.740732,0.269245118 103.786129,0.805835917 L102.907696,3.23996374 C102.515176,3.04147263 102.123538,2.87479708 101.731459,2.73898737 C101.33938,2.60412738 100.918225,2.53574767 100.468436,2.53574767" id="Fill-29"></path>
                        <polygon id="Fill-30" points="112.351381 11.6063165 106.049041 11.6063165 106.049041 0.164586169 112.351381 0.164586169 112.351381 2.64572504 108.917386 2.64572504 108.917386 4.44496622 112.09719 4.44496622 112.09719 6.92657996 108.917386 6.92657996 108.917386 9.08576435 112.351381 9.08576435"></polygon>
                    </g>
                    <g id="Group-17">
                        <g id="Group-3">
                            <mask id="mask-2" fill="white">
                                <use xlink:href="#path-1"></use>
                            </mask>
                            <g id="Clip-2"></g>
                            <path d="M16.6681199,18.8015773 C16.6681199,20.4361829 16.2934599,21.8847292 15.5455015,23.152377 C14.7961816,24.4200248 13.7163114,25.4043736 12.3056187,26.1075963 C10.894926,26.808646 9.23972411,27.1617512 7.34055761,27.1617512 C5.75560447,27.1617512 4.42850231,27.0373495 3.35271638,26.7937069 C2.27801959,26.5446319 1.16111909,26.1176462 -0.000163369161,25.5040579 L-0.000163369161,19.1631027 C1.22537762,19.8584484 2.50183534,20.403317 3.82458098,20.7920043 C5.14896031,21.1836795 6.36469915,21.3792455 7.47098066,21.3792455 C8.42478428,21.3792455 9.12591026,21.1959024 9.57054666,20.8292162 C10.0165445,20.4636165 10.2373651,19.9912703 10.2373651,19.4148939 C10.2373651,19.0549982 10.1496903,18.7388332 9.96862285,18.4688435 C9.7900059,18.1977673 9.50193162,17.925333 9.10657825,17.6504542 C8.70986347,17.3723159 7.65613237,16.808434 5.94211759,15.9552774 C4.38847687,15.1751865 3.22501616,14.4181832 2.44819579,13.6845391 C1.67300912,12.9519816 1.0990388,12.1129492 0.723017451,11.1628245 C0.349718918,10.215416 0.161844382,9.09009677 0.161844382,7.79229922 C0.161844382,5.36918243 0.959358171,3.47599512 2.55656401,2.11952777 C4.15104702,0.761430701 6.3429166,0.0837402651 9.1313559,0.0837402651 C11.5946906,0.0837402651 14.1073083,0.713354065 16.6681199,1.97421138 L14.6989769,7.46934373 C12.4744335,6.34266641 10.5532122,5.77443859 8.93531291,5.77443859 C8.10076878,5.77443859 7.49276321,5.93741024 7.11401904,6.26308192 C6.73255205,6.58630902 6.54440523,6.99020709 6.54440523,7.46934373 C6.54440523,7.98677872 6.7845579,8.44798848 7.26649693,8.85596084 C7.74952508,9.26529129 9.06137944,10.0114298 11.1993372,11.0903021 C13.2496202,12.1129492 14.6741993,13.2081187 15.4714408,14.3798848 C16.2700437,15.5502929 16.6681199,17.023285 16.6681199,18.8015773" id="Fill-1" fill="#FFFFFF" mask="url(#mask-2)"></path>
                        </g>
                        <path d="M28.453801,21.949917 C29.410691,21.949917 30.5547655,21.7294005 31.88724,21.2909108 L31.88724,26.0970016 C30.9300462,26.4825876 30.0187369,26.7544817 29.1505774,26.9185338 C28.286672,27.0800425 27.2726543,27.1619413 26.1103475,27.1619413 C23.7243521,27.1619413 22.004442,26.6196792 20.950921,25.5341375 C19.8970963,24.4468154 19.3701839,22.7818774 19.3701839,20.5322016 L19.3701839,12.6533768 L16.88148,12.6533768 L16.88148,9.96928096 L20.0423466,7.89637455 L21.87712,3.88027733 L26.5284741,3.88027733 L26.5284741,7.71172055 L31.5778993,7.71172055 L31.5778993,12.6533768 L26.5284741,12.6533768 L26.5284741,20.0921859 C26.5284741,21.3305885 27.1702498,21.949917 28.453801,21.949917" id="Fill-4" fill="#FFFFFF"></path>
                        <path d="M39.9265673,22.1408416 C40.6721798,22.1408416 41.309958,21.8670881 41.8430657,21.3223242 C42.3716913,20.7750915 42.6374542,20.0657463 42.6374542,19.1931914 L42.6374542,17.5909929 L41.2182066,17.6642315 C39.1904463,17.7484423 38.1764343,18.6097508 38.1764343,20.2481572 C38.1764343,21.5102211 38.7598999,22.1408416 39.9265673,22.1408416 L39.9265673,22.1408416 Z M44.4977944,26.7982168 L43.3153078,24.0691853 L43.1890177,24.0691853 C42.3598269,25.2582848 41.5134987,26.0696704 40.6508239,26.5066336 C39.7897311,26.9449684 38.6763217,27.1619413 37.3100684,27.1619413 C35.6279581,27.1619413 34.3044167,26.5801466 33.3383897,25.414637 C32.3710445,24.2491275 31.88724,22.6137384 31.88724,20.5024352 C31.88724,18.3069213 32.5492743,16.6742753 33.8738703,15.5987368 C35.1974117,14.5273129 37.116283,13.9232997 39.6262658,13.789166 L42.6055521,13.6799937 L42.6055521,13.3895078 C42.6055521,11.6904807 41.8799773,10.8428872 40.4301458,10.8428872 C39.1266421,10.8428872 37.4722154,11.3517176 35.4658111,12.3721214 L33.683776,7.67442381 C35.7647943,6.4384186 38.3905211,5.820416 41.5651748,5.820416 C43.8557978,5.820416 45.6286049,6.47572369 46.8859692,7.78633906 C48.1401697,9.09695444 48.76872,10.9273723 48.76872,13.2775926 L48.76872,26.7982168 L44.4977944,26.7982168 Z" id="Fill-6" fill="#FFFFFF"></path>
                        <path d="M62.1062356,5.820416 C62.5823745,5.820416 63.0348354,5.86980864 63.4661971,5.96943107 L63.77448,6.04254333 L63.2840405,12.8710054 C62.8350962,12.7233856 62.2138416,12.6502734 61.4195734,12.6502734 C60.2239514,12.6502734 59.3556016,13.0102536 58.8131174,13.7330046 C58.2708676,14.4560346 57.9989222,15.4955124 57.9989222,16.8525542 L57.9989222,27.1619413 L52.52016,27.1619413 L52.52016,6.19044219 L56.5977001,6.19044219 L57.4519837,9.54049072 L57.719006,9.54049072 C58.1775622,8.43069122 58.8142896,7.5335312 59.6320013,6.84566201 C60.449713,6.16225769 61.2744577,5.820416 62.1062356,5.820416" id="Fill-8" fill="#FFFFFF"></path>
                        <path d="M75.3453256,21.949917 C76.3024225,21.949917 77.4494196,21.7294005 78.78024,21.2909108 L78.78024,26.0970016 C77.8231431,26.4825876 76.9104069,26.7544817 76.0453736,26.9185338 C75.1800365,27.0800425 74.1646023,27.1619413 73.0024132,27.1619413 C70.6166593,27.1619413 68.8966195,26.6196792 67.8432052,25.5341375 C66.789791,24.4468154 66.2626281,22.7818774 66.2626281,20.5322016 L66.2626281,12.6533768 L63.77448,12.6533768 L63.77448,9.96928096 L66.9350266,7.89637455 L68.7696142,3.88027733 L73.4204974,3.88027733 L73.4204974,7.71172055 L78.4709306,7.71172055 L78.4709306,12.6533768 L73.4204974,12.6533768 L73.4204974,20.0921859 C73.4204974,21.3305885 74.0619043,21.949917 75.3453256,21.949917" id="Fill-10" fill="#FFFFFF"></path>
                        <path d="M95.66172,18.7758544 C95.66172,20.4155266 95.2822989,21.8685628 94.5248355,23.1401398 C93.7673721,24.4117168 92.6724004,25.3991166 91.2424021,26.104519 C89.8151612,26.8077416 88.1389253,27.1619413 86.2170032,27.1619413 C84.6132874,27.1619413 83.2651845,27.037154 82.1771064,26.7927562 C81.0887525,26.5429092 79.9576586,26.1146 78.78024,25.4991099 L78.78024,19.1385004 C80.0227337,19.8360014 81.3154124,20.3825588 82.656346,20.7724509 C83.9959009,21.1653402 85.227365,21.3615123 86.3477049,21.3615123 C87.3136293,21.3615123 88.0236651,21.1776009 88.4739519,20.8097781 C88.9239629,20.4430452 89.1492442,19.969235 89.1492442,19.3910721 C89.1492442,19.0300608 89.0590765,18.7129158 88.8770868,18.4420893 C88.6962,18.1701729 88.4044649,17.8968942 88.0040874,17.6211633 C87.6023313,17.3421629 86.5352095,16.7765332 84.7991375,15.9207322 C83.2274078,15.1382233 82.0477833,14.3788736 81.2610913,13.6429556 C80.4760536,12.9081274 79.8947894,12.0664944 79.5139896,11.1134247 C79.1345685,10.1630797 78.9456852,9.03427241 78.9456852,7.73245223 C78.9456852,5.3018248 79.7533337,3.40276941 81.3708366,2.04209758 C82.9855821,0.67979099 85.2050298,0 88.02918,0 C90.5265757,0 93.068366,0.631565337 95.66172,1.89633078 L93.6675535,7.40849572 C91.4147409,6.27832617 89.4688292,5.70833709 87.8306457,5.70833709 C86.9854963,5.70833709 86.3697643,5.87181388 85.9862071,6.198495 C85.5998925,6.52272397 85.4093547,6.92787395 85.4093547,7.40849572 C85.4093547,7.92753453 85.6525592,8.39017385 86.1406226,8.79941075 C86.629789,9.21000996 87.9583143,9.9584612 90.1234409,11.0406776 C92.1983998,12.0664944 93.6424609,13.1650585 94.448455,14.3404566 C95.2585851,15.5144924 95.66172,16.9920501 95.66172,18.7758544" id="Fill-12" fill="#FFFFFF"></path>
                        <g id="Group-16" transform="translate(95.661720, 5.820416)">
                            <mask id="mask-4" fill="white">
                                <use xlink:href="#path-3"></use>
                            </mask>
                            <g id="Clip-15"></g>
                            <path d="M8.81538287,4.87916519 C8.12198238,4.87916519 7.54020123,5.14401899 7.07432277,5.67071689 C6.60693254,6.19604674 6.33380531,7.02344127 6.25393324,8.14469217 L11.3158576,8.14469217 C11.2954487,7.15586817 11.0618795,6.36294842 10.6148983,5.77003707 C10.167665,5.17849376 9.5695063,4.87916519 8.81538287,4.87916519 M9.15931153,21.3403215 C6.31868757,21.3403215 4.11174901,20.431665 2.53950371,18.6110687 C0.968518223,16.789378 0.183907347,14.1985715 0.183907347,10.8323563 C0.183907347,7.36134875 0.912834536,4.69584696 2.36791733,2.83968147 C3.82350404,0.98214794 5.90194178,0.0540651975 8.60323054,0.0540651975 C11.1747587,0.0540651975 13.1597184,0.860665411 14.5603773,2.47550749 C15.9610362,4.09171762 16.6622475,6.4182175 16.6622475,9.45336545 L16.6622475,12.612732 L6.1322354,12.612732 C6.17280135,13.7613439 6.52302907,14.6631601 7.17964305,15.3168127 C7.83751685,15.9690973 8.7355108,16.2960604 9.86934154,16.2960604 C10.9016314,16.2960604 11.8553091,16.178682 12.7215558,15.9414628 C13.5913299,15.7069796 14.5324095,15.3045003 15.547062,14.7348458 L15.547062,19.8343759 C14.622612,20.4037568 13.6676745,20.7955653 12.6845173,21.015 C11.701864,21.231425 10.5246957,21.3403215 9.15931153,21.3403215" id="Fill-14" fill="#FFFFFF" mask="url(#mask-4)"></path>
                        </g>
                    </g>
                </g>
                <g id="Group-5" fill="#FFFFFF">
                    <path d="M60.6542147,13.3864599 C62.4542917,13.3864599 64.149045,12.6889604 65.4225038,11.4253367 C66.6942216,10.1617129 67.3966695,8.47889799 67.3966695,6.69150135 C67.3966695,4.90410471 66.6942216,3.2221541 65.4225038,1.96025899 C64.149045,0.695770936 62.4542917,2.66453526e-15 60.6542147,2.66453526e-15 C58.8541377,2.66453526e-15 57.1602548,0.695770936 55.886796,1.96025899 C53.2606682,4.56875176 53.2606682,8.81252232 55.886796,11.4253367 C57.1602548,12.6889604 58.8541377,13.3864599 60.6542147,13.3864599" id="Fill-1"></path>
                    <path d="M21.008986,39.3708793 C19.2227761,39.3708793 17.5412303,40.0427123 16.274016,41.2667367 C15.0085317,42.4907611 14.3122126,44.1180527 14.3122126,45.8482526 C14.3122126,47.5792892 15.0085317,49.2074174 16.274016,50.4314419 C17.5386353,51.6546296 19.2227761,52.3289726 21.008986,52.3289726 C22.7977909,52.3289726 24.4819316,51.6546296 25.7474159,50.4314419 C28.3596938,47.9039109 28.3596938,43.793431 25.7448209,41.2642268 C24.4793366,40.0427123 22.7977909,39.3708793 21.008986,39.3708793" id="Fill-3"></path>
                    <polygon id="Fill-6" points="73.5906764 11.3138882 60.4407782 24.2783792 47.29088 11.3138882 34.139289 24.2783792 20.9893908 11.3138882 1.0658141e-14 32.0073387 7.83864619 39.7312913 20.9893908 26.7668004 26.303182 32.0056697 32.1078938 37.7285378 34.139289 39.7312913 47.29088 26.7668004 60.4407782 39.7312913 81.4250905 19.0428478"></polygon>
                </g>
            </g>
        </g>
    </g>
</svg>