<?xml version="1.0" encoding="UTF-8"?>
<svg width="660px" height="864px" viewBox="0 0 660 864" version="1.1" xmlns="http://www.w3.org/2000/svg" xmlns:xlink="http://www.w3.org/1999/xlink">
    <!-- Generator: Sketch 53.2 (72643) - https://sketchapp.com -->
    <title>pattern</title>
    <desc>Created with Sketch.</desc>
    <g id="Symbols" stroke="none" stroke-width="1" fill="none" fill-rule="evenodd" opacity="0.35">
        <g id="bg" transform="translate(-43.000000, -50.000000)">
            <g id="pattern">
                <g>
                    <rect id="Rectangle" x="0" y="0" width="775" height="1017"></rect>
                    <g id="Group" stroke-width="1" fill-rule="evenodd" transform="translate(40.155440, 48.142012)" stroke="#1890FF">
                        <path d="M634.072691,56.6454632 C638.478703,56.5271267 642.673077,54.6993201 645.873722,51.5061013 C649.070106,48.312997 650.900842,44.1257784 651.019131,39.7273858 C651.13742,35.3289931 649.529363,31.2362588 646.500117,28.214613 C643.466781,25.1867009 639.364613,23.5859732 634.958601,23.7043097 C630.552589,23.8226463 626.36046,25.6461419 623.159757,28.8414875 C616.559208,35.4330592 616.278358,45.8760515 622.533363,52.1329759 C625.566756,55.158761 629.666679,56.7637997 634.072691,56.6454632" id="Fill-1" transform="translate(634.522474, 40.174879) rotate(174.000000) translate(-634.522474, -40.174879) "></path>
                        <path d="M4.61746914,7.61296116 C3.19068762,9.62912043 2.67136147,12.056955 3.15473939,14.4428055 C3.63949719,16.8267061 5.0706721,18.8913115 7.18216794,20.2485603 C9.29366378,21.6058091 11.8373696,22.0962181 14.3360696,21.6300549 C16.8392127,21.1639108 19.0044437,19.7940477 20.4312252,17.7778885 C21.8580068,15.7617292 22.378685,13.3361822 21.8942861,10.9496754 C20.894337,6.0275625 15.881066,2.80508103 10.7129558,3.76242598 C8.21083382,4.22922639 6.04425066,5.59680189 4.61746914,7.61296116" id="Fill-1" transform="translate(12.524702, 12.697900) rotate(422.000000) translate(-12.524702, -12.697900) "></path>
                        <path d="M448.336991,252.615573 C450.334181,251.070984 451.584474,248.873826 451.855969,246.435158 C452.125532,243.997984 451.384841,241.602779 449.770315,239.698927 C448.155788,237.795075 445.857142,236.606287 443.306319,236.353396 C440.751222,236.099236 438.24241,236.812347 436.24522,238.356936 C434.248031,239.901525 432.997142,242.096095 432.726428,244.535684 C432.168941,249.567526 436.00227,254.087794 441.276078,254.617446 C443.830394,254.870685 446.339801,254.160162 448.336991,252.615573" id="Fill-1" transform="translate(442.291402, 245.485323) rotate(422.000000) translate(-442.291402, -245.485323) "></path>
                        <path d="M400.641671,59.9082021 C397.226074,62.5232408 395.085726,66.2400576 394.621314,70.3818001 C394.160211,74.5210099 395.4328,78.5802705 398.201573,81.8123458 C400.971685,85.045984 404.90862,87.0679638 409.287243,87.5017968 C413.662873,87.9353333 417.962418,86.7294221 421.378014,84.1143834 C424.798572,81.4955457 426.939866,77.7702411 427.402309,73.6325942 C428.352803,65.0866611 421.774959,57.4081379 412.727401,56.5117079 C408.352795,56.0825636 404.062229,57.2893644 400.641671,59.9082021" id="Fill-3" transform="translate(411.011199, 72.007543) rotate(422.000000) translate(-411.011199, -72.007543) "></path>
                        <polygon id="Fill-6" transform="translate(224.091564, 59.658004) rotate(489.000000) translate(-224.091564, -59.658004) " points="233.41153 87.0820578 223.430657 75.4854023 235.717328 66.1258772 225.736602 54.5278728 238.023273 45.1683477 222.092165 26.6581867 214.771671 32.2377538 224.75247 43.8350837 219.787504 47.617209 214.363843 51.7487501 212.4658 53.1946088 222.446525 64.7926131 210.159854 74.1521382 226.087108 92.6578207"></polygon>
                        <polygon id="Fill-6" transform="translate(386.995642, 347.785630) rotate(-238.000000) translate(-386.995642, -347.785630) " points="357.044963 344.09792 372.228764 340.42966 375.999178 355.077266 391.184199 351.409713 394.954613 366.057319 419.190446 360.202175 416.941068 351.473693 401.756657 355.1416 400.233056 349.222594 398.568696 342.756755 397.986243 340.493994 382.801222 344.161547 379.030808 329.513941 354.800839 335.367668"></polygon>
                        <polygon id="Fill-6" transform="translate(578.567881, 197.149117) rotate(272.000000) translate(-578.567881, -197.149117) " points="568.651652 224.916844 568.223133 209.3052 583.445357 209.736121 583.017789 194.1235 598.240013 194.554421 597.556026 169.63568 588.484586 169.38139 588.912629 184.993523 582.761424 184.81939 576.041933 184.62917 573.690405 184.562601 574.117973 200.175223 558.895748 199.744301 559.579571 224.657013"></polygon>
                        <path d="M53.7442863,232.047288 C52.3165061,234.062618 51.7965866,236.489291 52.2798863,238.873863 C52.7645669,241.256487 54.1961889,243.319848 56.3085735,244.67612 C58.4209581,246.032391 60.9658899,246.522203 63.465923,246.055936 C65.9704013,245.589687 68.1369185,244.220224 69.5646987,242.204894 C70.9924789,240.189564 71.513751,237.765177 71.0294298,235.379949 C70.0296406,230.460472 65.0142594,227.240312 59.8433931,228.197876 C57.3399362,228.664781 55.1720665,230.031958 53.7442863,232.047288" id="Fill-1" transform="translate(61.654847, 237.128567) rotate(583.000000) translate(-61.654847, -237.128567) "></path>
                        <path d="M230.167371,271.134798 C232.165785,269.590721 233.417012,267.394507 233.688976,264.957041 C233.959007,262.521068 233.218264,260.127181 231.603176,258.224516 C229.988088,256.321851 227.688435,255.133981 225.136349,254.881566 C222.579989,254.627885 220.069805,255.340976 218.071391,256.885053 C216.072976,258.42913 214.821154,260.622757 214.549971,263.061143 C213.991519,268.090506 217.826182,272.607955 223.102598,273.136618 C225.658178,273.389379 228.168956,272.678875 230.167371,271.134798" id="Fill-1" transform="translate(224.119678, 264.008995) rotate(583.000000) translate(-224.119678, -264.008995) "></path>
                        <path d="M647.169834,412.82532 C651.086381,412.723536 654.813473,411.101986 657.656151,408.265911 C660.495042,405.429935 662.119195,401.709203 662.220939,397.799427 C662.322683,393.889651 660.890062,390.250249 658.194931,387.561871 C655.49616,384.86792 651.848377,383.44181 647.93183,383.543595 C644.015282,383.645379 640.290182,385.263098 637.447455,388.101064 C631.585131,393.95541 631.343563,403.238292 636.908676,408.805104 C639.607496,411.497165 643.253286,412.927105 647.169834,412.82532" id="Fill-1" transform="translate(647.556895, 398.184451) rotate(174.000000) translate(-647.556895, -398.184451) "></path>
                        <path d="M360.615433,848.814969 C363.130541,848.876248 365.474578,847.962782 367.210566,846.246734 C368.944123,844.530626 369.867912,842.211481 369.806641,839.722809 C369.745371,837.234137 368.706238,834.86837 366.886109,833.068085 C365.063458,831.264131 362.671661,830.237684 360.156553,830.176406 C357.641445,830.115127 355.298565,831.026216 353.562606,832.743467 C349.98274,836.285988 350.128214,842.194779 353.887064,845.922116 C355.709685,847.724867 358.100326,848.75369 360.615433,848.814969" id="Fill-1" transform="translate(360.389750, 839.495684) rotate(235.000000) translate(-360.389750, -839.495684) "></path>
                        <polygon id="Fill-6" transform="translate(583.629431, 837.907468) rotate(281.000000) translate(-583.629431, -837.907468) " points="572.248271 865.792429 572.584127 850.416351 587.935268 850.080853 588.272134 834.703765 603.623275 834.368267 604.159355 809.82553 595.010966 810.02794 594.674605 825.404523 588.471306 825.540096 581.694907 825.688193 579.323464 825.740021 578.986599 841.11711 563.635457 841.452608 563.099506 865.989406"></polygon>
                        <path d="M492.515257,564.915609 C490.617863,566.453497 489.429007,568.639628 489.171253,571.075896 C488.915336,573.510674 489.622578,575.898611 491.160982,577.800131 C492.70013,579.70257 494.887439,580.892395 497.320034,581.148065 C499.750966,581.40356 502.139528,580.694665 504.036922,579.156778 C505.937073,577.616655 507.126454,575.425532 507.383114,572.991673 C507.910646,567.964758 504.255821,563.44727 499.229345,562.91898 C496.798982,562.666069 494.415408,563.375487 492.515257,564.915609" id="Fill-3" transform="translate(498.276844, 572.033988) rotate(422.000000) translate(-498.276844, -572.033988) "></path>
                        <polygon id="Fill-6" transform="translate(636.026640, 546.662482) rotate(-300.000000) translate(-636.026640, -546.662482) " points="665.410862 539.747664 652.565757 548.391364 643.611913 536.10343 630.765405 544.746895 621.81156 532.458961 601.30867 546.255721 606.646678 553.577183 619.492484 544.933601 623.110676 549.899078 627.063139 555.323296 628.446328 557.221535 641.292836 548.578069 650.24668 560.866003 670.74461 547.072582"></polygon>
                        <polygon id="Fill-6" transform="translate(353.444586, 634.045069) rotate(360.000000) translate(-353.444586, -634.045069) " points="323.494357 630.343462 338.673513 626.697263 342.455184 641.308164 357.63556 637.66267 361.417231 652.27357 385.645649 646.45364 383.389564 637.747029 368.209798 641.392875 366.681648 635.488702 365.012319 629.039066 364.428127 626.781975 349.24775 630.427468 345.46608 615.816568 321.243523 621.635091"></polygon>
                        <path d="M201.028269,518.184261 C197.853755,518.108788 194.894347,519.272594 192.695217,521.468856 C190.499161,523.665191 189.33211,526.626796 189.407038,529.806972 C189.482002,532.988686 190.790033,536.010672 193.092103,538.313948 C195.3926,540.61565 198.414917,541.926279 201.589432,542.001752 C204.768559,542.077334 207.73247,540.909025 209.928561,538.714227 C214.461736,534.178901 214.283728,526.623676 209.526954,521.864412 C207.224992,519.565749 204.207396,518.259843 201.028269,518.184261" id="Fill-3" transform="translate(201.309260, 530.093005) rotate(235.000000) translate(-201.309260, -530.093005) "></path>
                        <path d="M93.4642899,714.820219 C95.4624574,713.280782 96.7133451,711.090938 96.9849414,708.660377 C97.2546053,706.231306 96.5135093,703.844055 94.8981483,701.946516 C93.2827873,700.048976 90.9829742,698.864118 88.4308708,698.612043 C85.8744917,698.358705 83.3644348,699.069423 81.3662673,700.608859 C79.3680998,702.148296 78.1166161,704.335561 77.8458009,706.767039 C77.2881066,711.782152 81.1234172,716.287432 86.3998715,716.815373 C88.9554695,717.067794 91.4661224,716.359655 93.4642899,714.820219" id="Fill-1" transform="translate(87.415575, 707.713611) rotate(583.000000) translate(-87.415575, -707.713611) "></path>
                        <polygon id="Fill-6" transform="translate(162.629534, 832.455621) rotate(630.000000) translate(-162.629534, -832.455621) " points="132.77589 828.794706 147.907762 825.175192 151.672969 839.659788 166.806056 836.040973 170.571264 850.525569 194.724208 844.748232 192.477942 836.116887 177.345462 839.736051 175.823965 833.882917 174.161904 827.489034 173.580255 825.251455 158.447167 828.870269 154.68196 814.385673 130.534859 820.161612"></polygon>
                        <polygon id="Fill-6" transform="translate(61.093080, 418.715659) rotate(708.000000) translate(-61.093080, -418.715659) " points="35.5213646 415.548925 48.480591 412.436388 51.7115677 424.918647 64.6718362 421.806713 67.9028129 434.288972 88.5878603 429.320853 86.6603117 421.882695 73.7005642 424.994931 72.3949468 419.950928 70.9687085 414.44093 70.4695875 412.512672 57.509319 415.624606 54.2783423 403.142347 33.5982997 408.109264"></polygon>
                    </g>
                </g>
            </g>
        </g>
    </g>
</svg>